<svg width="17" height="16" viewBox="0 0 17 16" fill="none" xmlns="http://www.w3.org/2000/svg">
<path d="M16.3999 2.79407H0.27124V14.8161H16.3999V2.79407Z" fill="#DFDFDF"/>
<path d="M7.11368 0.838165H2.55206V2.79406H7.11368V0.838165Z" fill="#DFDFDF"/>
<path d="M14.445 4.13177H11.1866V5.43574H14.445V4.13177Z" fill="#333333"/>
<path d="M12.5699 6.77347H16.3999V14.8161H0.27124V6.77347H3.23865" fill="#333333"/>
<path d="M6.27963 12.4631C8.29897 12.4631 9.93597 10.8253 9.93597 8.80506C9.93597 6.78479 8.29897 5.14703 6.27963 5.14703C4.26029 5.14703 2.62329 6.78479 2.62329 8.80506C2.62329 10.8253 4.26029 12.4631 6.27963 12.4631Z" fill="#333333"/>
<path d="M6.27958 11.5187C4.78396 11.5187 3.5672 10.3013 3.5672 8.80506C3.5672 7.30878 4.78399 6.09146 6.27958 6.09146C7.77517 6.09146 8.99193 7.30878 8.99193 8.80506C8.99193 10.3013 7.77517 11.5187 6.27958 11.5187Z" fill="#333333"/>
<path d="M7.36059 2.54708V0.591187H2.30524V2.54708H0.0244141V6.52648V15.0631H16.6468V6.52648V2.54708H7.36059ZM2.79897 1.08515H6.86686V2.54708H2.79897V1.08515ZM16.1531 7.02045V14.5691H0.518149V7.02045H2.80845C2.53242 7.55564 2.3764 8.16246 2.3764 8.80507C2.3764 10.9583 4.12738 12.7101 6.27961 12.7101C8.43183 12.7101 10.1828 10.9583 10.1828 8.80507C10.1828 8.16246 10.0268 7.55567 9.75076 7.02045H11.9116V6.52648H9.44748C8.73811 5.54211 7.58247 4.90006 6.27961 4.90006C4.97674 4.90006 3.8211 5.54215 3.11174 6.52648H0.518149V3.04105H2.30524H7.36059H16.1531V6.52648H12.57V7.02045H16.1531ZM9.68908 8.80507C9.68908 10.6859 8.15959 12.2161 6.27961 12.2161C4.39963 12.2161 2.87014 10.6859 2.87014 8.80507C2.87014 6.92422 4.39963 5.39402 6.27961 5.39402C8.15959 5.39402 9.68908 6.92422 9.68908 8.80507Z" fill="white"/>
<path d="M14.6919 3.8848H10.9398V5.68272H14.6919V3.8848ZM14.1981 5.18876H11.4336V4.37876H14.1981V5.18876Z" fill="white"/>
<path d="M6.27962 5.84448C4.64789 5.84448 3.32037 7.17258 3.32037 8.80507C3.32037 10.4375 4.64789 11.7657 6.27962 11.7657C7.91135 11.7657 9.23884 10.4375 9.23884 8.80507C9.23884 7.17258 7.91132 5.84448 6.27962 5.84448ZM6.27962 11.2717C4.92014 11.2717 3.81411 10.1651 3.81411 8.80507C3.81411 7.44496 4.92014 6.33845 6.27962 6.33845C7.63911 6.33845 8.7451 7.44499 8.7451 8.80507C8.7451 10.1652 7.63907 11.2717 6.27962 11.2717Z" fill="white"/>
<path d="M4.3078 8.80505H4.80154C4.80154 7.98969 5.46459 7.32636 6.27958 7.32636V6.8324C5.19234 6.8324 4.3078 7.71732 4.3078 8.80505Z" fill="white"/>
</svg>
