<svg width="45" height="45" viewBox="0 0 45 45" fill="none" xmlns="http://www.w3.org/2000/svg">
<path d="M38.6719 4.92188H6.32812C5.55029 4.92188 4.92188 5.55029 4.92188 6.32812V38.6719C4.92188 39.4497 5.55029 40.0781 6.32812 40.0781H38.6719C39.4497 40.0781 40.0781 39.4497 40.0781 38.6719V6.32812C40.0781 5.55029 39.4497 4.92188 38.6719 4.92188ZM17.7539 30.0146V33.3984C17.7539 33.5918 17.5957 33.75 17.4023 33.75H15.293C15.0996 33.75 14.9414 33.5918 14.9414 33.3984V30.0146C13.1089 29.417 11.7773 27.6943 11.7773 25.6641C11.7773 23.6338 13.1089 21.9067 14.9414 21.3135V11.6016C14.9414 11.4082 15.0996 11.25 15.293 11.25H17.4023C17.5957 11.25 17.7539 11.4082 17.7539 11.6016V21.3135C19.5864 21.9111 20.918 23.6338 20.918 25.6641C20.918 27.6943 19.5864 29.4214 17.7539 30.0146ZM30.041 23.6909C30.0498 23.6909 30.0542 23.6865 30.0586 23.6865V33.3984C30.0586 33.5918 29.9004 33.75 29.707 33.75H27.5977C27.4043 33.75 27.2461 33.5918 27.2461 33.3984V23.6865C27.2549 23.6865 27.2593 23.6909 27.2637 23.6909C25.418 23.102 24.082 21.375 24.082 19.3359C24.082 17.2969 25.418 15.5698 27.2637 14.981C27.2549 14.981 27.2505 14.9854 27.2461 14.9854V11.6016C27.2461 11.4082 27.4043 11.25 27.5977 11.25H29.707C29.9004 11.25 30.0586 11.4082 30.0586 11.6016V14.9854C30.0498 14.9854 30.0454 14.981 30.041 14.981C31.8867 15.5698 33.2227 17.2969 33.2227 19.3359C33.2227 21.375 31.8867 23.102 30.041 23.6909ZM27.0703 19.3359C27.0703 19.7555 27.237 20.1579 27.5337 20.4546C27.8304 20.7513 28.2328 20.918 28.6523 20.918C29.0719 20.918 29.4743 20.7513 29.771 20.4546C30.0677 20.1579 30.2344 19.7555 30.2344 19.3359C30.2344 18.9164 30.0677 18.514 29.771 18.2173C29.4743 17.9206 29.0719 17.7539 28.6523 17.7539C28.2328 17.7539 27.8304 17.9206 27.5337 18.2173C27.237 18.514 27.0703 18.9164 27.0703 19.3359ZM17.7275 24.895L17.6616 24.7895C17.6616 24.7852 17.6572 24.7852 17.6572 24.7808L17.6177 24.728C17.6133 24.7236 17.6089 24.7192 17.6089 24.7148C17.5649 24.6577 17.521 24.605 17.4683 24.5566L17.4595 24.5478C17.4419 24.5303 17.4243 24.5127 17.4067 24.4995C17.3716 24.4644 17.332 24.4336 17.2925 24.4072H17.2881L17.2354 24.3677C17.231 24.3633 17.2222 24.3589 17.2178 24.3545C17.165 24.3193 17.1079 24.2842 17.0464 24.2578C17.0376 24.2534 17.0244 24.249 17.0156 24.2402C16.998 24.2314 16.9849 24.227 16.9673 24.2183C16.9541 24.2139 16.9365 24.2051 16.9233 24.2007C16.9014 24.1919 16.8794 24.1831 16.8574 24.1787C16.8398 24.1743 16.8179 24.1655 16.8003 24.1611L16.7607 24.1479L16.6992 24.1348C16.6904 24.1304 16.6772 24.1304 16.6685 24.126C16.6377 24.1216 16.6069 24.1128 16.5762 24.1084C16.5674 24.1084 16.5586 24.1084 16.5498 24.104C16.5234 24.0996 16.5015 24.0996 16.4751 24.0952C16.4663 24.0952 16.4575 24.0952 16.4443 24.0908C16.4092 24.0908 16.3784 24.0864 16.3433 24.0864C16.3081 24.0864 16.2773 24.0864 16.2422 24.0908C16.2334 24.0908 16.2246 24.0908 16.2114 24.0952C16.1851 24.0952 16.1587 24.0996 16.1367 24.104C16.1279 24.104 16.1191 24.104 16.1104 24.1084C16.0796 24.1128 16.0488 24.1172 16.0181 24.126C16.0093 24.1304 15.9961 24.1304 15.9873 24.1348L15.9258 24.1479L15.8862 24.1611C15.8687 24.1655 15.8467 24.1743 15.8291 24.1787C15.8071 24.1875 15.7852 24.1963 15.7632 24.2007C15.75 24.2051 15.7324 24.2139 15.7192 24.2183C15.7017 24.227 15.6885 24.2314 15.6709 24.2402C15.6621 24.2446 15.6489 24.249 15.6401 24.2578C15.583 24.2886 15.5259 24.3193 15.4688 24.3545C15.4644 24.3589 15.4556 24.3633 15.4512 24.3677L15.3984 24.4072H15.394C15.3545 24.438 15.3149 24.4688 15.2798 24.4995C15.2622 24.5171 15.2446 24.5303 15.2271 24.5478L15.2183 24.5566C15.1691 24.6073 15.1222 24.6601 15.0776 24.7148C15.0732 24.7192 15.0688 24.7236 15.0688 24.728L15.0293 24.7808C15.0293 24.7852 15.0249 24.7852 15.0249 24.7895L14.959 24.895C14.9546 24.9038 14.9502 24.9082 14.9458 24.917C14.8271 25.1411 14.7568 25.396 14.7568 25.6641C14.7568 25.9321 14.8271 26.1914 14.9458 26.4111C14.9502 26.4199 14.9546 26.4243 14.959 26.4331L15.0249 26.5386C15.0249 26.543 15.0293 26.543 15.0293 26.5474L15.0688 26.6001C15.0732 26.6045 15.0776 26.6089 15.0776 26.6133C15.1216 26.6704 15.1655 26.7231 15.2183 26.7715L15.2271 26.7803C15.2446 26.7979 15.2622 26.8154 15.2798 26.8286C15.3149 26.8638 15.3545 26.8945 15.394 26.9209H15.3984L15.4512 26.9604C15.4556 26.9648 15.4644 26.9692 15.4688 26.9736C15.5215 27.0088 15.5786 27.0439 15.6401 27.0703C15.6489 27.0747 15.6621 27.0791 15.6709 27.0879C15.6885 27.0967 15.7017 27.1011 15.7192 27.1099C15.7324 27.1143 15.75 27.123 15.7632 27.1274C15.7852 27.1362 15.8071 27.145 15.8291 27.1494C15.8467 27.1538 15.8687 27.1626 15.8862 27.167L15.9258 27.1802L15.9873 27.1934C15.9961 27.1978 16.0093 27.1978 16.0181 27.2021C16.0488 27.2065 16.0796 27.2153 16.1104 27.2197C16.1191 27.2197 16.1279 27.2197 16.1367 27.2241C16.1631 27.2285 16.1851 27.2285 16.2114 27.2329C16.2202 27.2329 16.229 27.2329 16.2422 27.2373C16.2773 27.2373 16.3081 27.2417 16.3433 27.2417C16.3784 27.2417 16.4092 27.2417 16.4443 27.2373C16.4531 27.2373 16.4619 27.2373 16.4751 27.2329C16.5015 27.2329 16.5278 27.2285 16.5498 27.2241C16.5586 27.2241 16.5674 27.2241 16.5762 27.2197C16.6069 27.2153 16.6377 27.2109 16.6685 27.2021C16.6772 27.1978 16.6904 27.1978 16.6992 27.1934L16.7607 27.1802L16.8003 27.167C16.8179 27.1626 16.8398 27.1538 16.8574 27.1494C16.8794 27.1406 16.9014 27.1318 16.9233 27.1274C16.9365 27.123 16.9541 27.1143 16.9673 27.1099C16.9849 27.1011 16.998 27.0967 17.0156 27.0879C17.0244 27.0835 17.0376 27.0791 17.0464 27.0703C17.1035 27.0396 17.1606 27.0088 17.2178 26.9736C17.2222 26.9692 17.231 26.9648 17.2354 26.9604L17.2881 26.9209H17.2925C17.332 26.8901 17.3716 26.8594 17.4067 26.8286C17.4243 26.811 17.4419 26.7979 17.4595 26.7803L17.4683 26.7715C17.5166 26.7231 17.5649 26.666 17.6089 26.6133C17.6133 26.6089 17.6177 26.6045 17.6177 26.6001L17.6572 26.5474C17.6572 26.543 17.6616 26.543 17.6616 26.5386L17.7275 26.4331C17.7319 26.4243 17.7363 26.4199 17.7407 26.4111C17.8594 26.187 17.9297 25.9321 17.9297 25.6641C17.9297 25.396 17.8594 25.1367 17.7407 24.917C17.7363 24.9082 17.7319 24.8994 17.7275 24.895Z" fill="#0066FF"/>
</svg>
