<svg width="17" height="22" viewBox="0 0 17 22" fill="none" xmlns="http://www.w3.org/2000/svg">
<path d="M14.4195 12.2968C14.5782 12.5141 14.7104 12.7361 14.7802 12.965H13.7964C13.3614 13.3379 12.988 13.4502 12.6028 13.4502C12.2189 13.4502 11.8382 13.3366 11.3985 12.965H8.80991V10.0612C9.00118 10.0699 9.18327 10.0991 9.37048 10.1164C8.70156 8.90493 7.85132 7.13119 7.58435 5.97286C7.57501 5.93296 7.57169 5.8931 7.56309 5.85324C3.65525 6.1974 0.579712 9.48534 0.579712 13.4821C0.579712 17.7073 4.01592 21.1452 8.23992 21.1452C12.4633 21.1452 15.8988 17.7073 15.8988 13.4821C15.8988 13.4821 15.8988 13.4821 15.8988 13.4817C15.8988 13.4817 15.8988 13.4814 15.8988 13.4811C15.8988 12.543 15.7207 11.6475 15.4113 10.8161C15.0386 11.4422 14.7131 11.9256 14.4195 12.2968ZM5.42943 7.4874C5.00304 8.07257 4.64496 8.79194 4.37065 9.61066C3.55165 9.88546 2.83224 10.2443 2.2471 10.6716C2.9046 9.27436 4.0332 8.14524 5.42943 7.4874ZM4.03914 10.8487C3.90106 11.5139 3.8147 12.2227 3.78682 12.965H1.70168C1.95809 12.1274 2.81562 11.378 4.03914 10.8487ZM1.70168 13.9991H3.78682C3.8147 14.7411 3.90106 15.4498 4.03914 16.115C2.81623 15.5857 1.95871 14.8368 1.70168 13.9991ZM2.24706 16.2921C2.83159 16.7198 3.55161 17.0786 4.36995 17.3534C4.64496 18.1721 5.00304 18.8916 5.42943 19.4767C4.0332 18.8188 2.9046 17.6897 2.24706 16.2921ZM7.77631 20.04C6.91735 19.8043 6.14819 18.9348 5.60813 17.6851C6.28901 17.8266 7.01501 17.9134 7.77631 17.9386V20.04ZM7.77631 16.9052C6.85961 16.8703 5.98816 16.7357 5.20434 16.5194C4.9917 15.7499 4.85752 14.8965 4.8196 13.999H7.77627V16.9052H7.77631ZM7.77631 12.965H4.81964C4.85756 12.0672 4.9917 11.2139 5.20438 10.4444C5.9882 10.2281 6.85965 10.0935 7.77635 10.0586V12.965H7.77631ZM7.77631 9.0252C7.01501 9.05073 6.28901 9.13749 5.60813 9.27871C6.14819 8.02931 6.91809 7.15971 7.77631 6.92415V9.0252ZM8.80987 13.9991H11.6602C11.6223 14.8982 11.4874 15.7532 11.2749 16.5238C10.5117 16.7337 9.67939 16.8634 8.80987 16.9026V13.9991ZM8.80987 20.04V17.9363C9.5226 17.9064 10.2147 17.82 10.873 17.6825C10.3549 18.8816 9.6262 19.7632 8.80987 20.04ZM11.0504 19.4764C11.4782 18.8896 11.8375 18.1679 12.1119 17.3465C12.6233 17.174 13.1056 16.9704 13.5408 16.7294C13.7951 16.5885 14.023 16.4364 14.2381 16.2789C13.5819 17.6825 12.4513 18.8161 11.0504 19.4764ZM13.0405 15.8246C12.8505 15.9296 12.6486 16.0253 12.4407 16.116C12.5789 15.4504 12.6651 14.7417 12.6931 13.999H14.7795C14.5742 14.6703 13.9791 15.3053 13.0405 15.8246Z" fill="white"/>
<path d="M12.6027 0.819489C9.87928 0.819489 8.33354 3.16909 8.90955 5.66682C9.32001 7.44551 11.7976 12.0891 12.6027 12.0891C13.3554 12.0891 15.8795 7.44416 16.2959 5.66682C16.8766 3.19363 15.3434 0.819489 12.6027 0.819489ZM12.6459 5.6057C11.8475 5.6057 11.2005 4.95839 11.2005 4.15958C11.2005 3.36077 11.8475 2.7135 12.6459 2.7135C13.4444 2.7135 14.0913 3.36077 14.0913 4.15958C14.0913 4.95839 13.4444 5.6057 12.6459 5.6057Z" fill="white"/>
</svg>
