<svg width="142" height="70" viewBox="0 0 142 70" fill="none" xmlns="http://www.w3.org/2000/svg">
<rect y="0.802063" width="141.325" height="68.8123" fill="var(--color-3)"/>
<path d="M109.412 20.6923C109.384 20.3663 109.2 20.0739 108.918 19.9091L104.808 17.512C104.238 17.1795 103.831 16.6448 103.663 16.0066C103.354 14.8327 102.568 13.8214 101.507 13.2318L99.2627 11.985L99.2185 11.3667C99.0618 9.1738 97.8663 7.15162 96.0205 5.95739C95.7485 5.78143 95.4085 5.74778 95.1071 5.86647C94.8059 5.98533 94.5805 6.24232 94.5019 6.55643L92.6526 13.9537C87.7157 17.7778 81.8157 19.9434 75.5677 20.2207C71.028 20.4222 65.6325 20.6606 60.898 20.8675C57.147 21.0312 53.5202 22.2298 50.4101 24.3338C49.5887 24.8895 48.8141 25.5033 48.0881 26.1669L44.9396 27.2498C43.4219 27.7718 42.2028 28.923 41.5947 30.408C40.9868 31.8931 41.0486 33.5686 41.7645 35.0047L42.7957 37.0735C42.8714 37.5211 42.9248 37.9704 42.9557 38.4198C41.7797 39.2114 38.3447 41.3361 34.639 41.8654C34.3135 41.9119 34.0314 42.115 33.884 42.4089C33.7366 42.7028 33.7426 43.0504 33.9001 43.339C34.6631 44.7378 36.5418 45.4469 39.4844 45.4469C39.4949 45.4469 39.5054 45.4469 39.5159 45.4469C40.276 45.4455 41.0061 45.3979 41.6238 45.3385C41.2168 46.1844 40.7221 46.9926 40.1421 47.748L38.0473 49.7936C37.8757 49.9612 37.7698 50.1849 37.7488 50.4238L36.9644 59.3856C36.8743 60.4165 37.2235 61.4453 37.9228 62.2084C38.6221 62.9714 39.6167 63.409 40.6515 63.409H42.3913C42.9455 63.409 43.3947 62.9598 43.3947 62.4057V61.3649C43.3947 60.3006 42.7613 59.3816 41.8518 58.9647L42.2862 55.1171C42.5657 52.6407 44.0734 50.4839 46.3192 49.348L46.4642 49.2747C50.742 47.1108 54.2394 43.6422 56.4714 39.4504L79.0067 42.1354C79.0746 43.1942 79.0806 44.2574 79.017 45.3195L78.7106 50.4269C78.5098 53.7748 78.6933 57.1492 79.2561 60.456C79.5474 62.1672 81.0187 63.4091 82.7548 63.4091H86.2563C86.8105 63.4091 87.2597 62.9599 87.2597 62.4058C87.2597 60.7099 86.1063 59.2783 84.5427 58.854C84.4842 56.8244 84.7082 54.8018 85.2109 52.8296L85.8179 50.4485C86.5492 47.58 87.6887 44.8243 89.1852 42.2774C89.2684 42.1503 89.3455 42.0208 89.4166 41.8898C90.4706 40.1527 91.6921 38.5165 93.0643 37.0125C96.4417 33.3107 98.5634 28.5248 99.0385 23.5364L99.0432 23.4881L103.013 24.3702C104.324 24.6612 105.723 24.3222 106.754 23.4626L109.054 21.546C109.306 21.337 109.439 21.0183 109.412 20.6923ZM74.208 34.1993H75.3148V39.675L74.208 39.5431V34.1993ZM73.2046 32.1927C72.6504 32.1927 72.2012 32.6419 72.2012 33.196V39.3039L71.0696 39.1691V32.5107C71.0696 31.9565 70.6204 31.5074 70.0662 31.5074H66.9542C66.4 31.5074 65.9508 31.9565 65.9508 32.5107V38.5591L62.1593 38.1074L61.9579 22.8296C65.7408 22.6641 69.8659 22.482 73.6028 22.3164V32.1925H73.2046V32.1927ZM69.0629 38.9301L67.9576 38.7984V33.5141H69.0629V38.9301ZM43.452 31.1684C43.8068 30.3017 44.4876 29.6137 45.3413 29.2458C44.5454 30.3458 43.857 31.527 43.292 32.7758L43.2311 32.9104C43.2249 32.924 43.2195 32.9377 43.2135 32.9513C43.1406 32.3529 43.2184 31.7387 43.452 31.1684ZM39.5123 43.4406C38.7326 43.4421 38.047 43.3856 37.4708 43.2787C39.6815 42.6095 41.6164 41.5994 42.909 40.8269C42.822 41.6388 42.6627 42.4408 42.4344 43.2234C41.7854 43.3137 40.6795 43.4384 39.5123 43.4406ZM57.5548 33.941C57.0248 33.7788 56.4639 34.0766 56.3015 34.6065L56.2431 34.7971C54.565 40.2742 50.6706 44.8986 45.5586 47.4845L45.4137 47.5578C42.5625 49.0001 40.648 51.742 40.2923 54.8925L39.7588 59.6173C39.7267 59.9011 39.8172 60.1853 40.0077 60.3983C40.198 60.6113 40.4702 60.7331 40.7559 60.7331C41.1045 60.7331 41.3882 61.0166 41.3882 61.3653V61.4028H40.6519C40.1712 61.4028 39.7275 61.2076 39.4025 60.8532C39.0778 60.4988 38.922 60.0397 38.9638 59.5609L39.7158 50.9696L41.5947 49.1345C41.6276 49.1024 41.6583 49.068 41.6866 49.0316C44.4188 45.5089 45.5349 40.9718 44.7487 36.5839L44.7229 36.4402C44.5585 35.5222 44.6749 34.5878 45.0596 33.7379L45.1208 33.6024C46.5146 30.5215 48.7325 27.8912 51.5346 25.9955C54.0505 24.2936 56.942 23.2516 59.9525 22.9489L60.1491 37.8676L57.3813 37.5379C57.6761 36.8356 57.9373 36.1173 58.1618 35.3847L58.2201 35.1941C58.3827 34.6645 58.0847 34.1034 57.5548 33.941ZM87.6669 40.9056C87.6058 41.007 87.4301 41.2975 87.4101 41.3383C85.8404 44.0263 84.6439 46.9307 83.8733 49.9532L83.2663 52.3343C82.6445 54.7737 82.4133 57.2841 82.5786 59.7957C82.6135 60.3231 83.0515 60.7331 83.5799 60.7331C84.1262 60.7331 84.6123 60.9964 84.9179 61.4027H82.7548C82.0004 61.4027 81.3611 60.8631 81.2345 60.1195C80.6973 56.9633 80.522 53.7427 80.7137 50.5473L81.0201 45.4399C81.1748 42.8617 80.9686 40.2765 80.4071 37.756C80.2477 37.0403 80.6194 36.3332 81.2909 36.0747C81.9595 35.8174 82.6563 35.6909 83.3486 35.6909C84.5319 35.6909 85.7021 36.0606 86.694 36.7784C88.0198 37.7378 88.411 39.4919 87.6669 40.9056ZM91.5817 35.6605C90.9567 36.3456 90.3613 37.0562 89.7965 37.7902C89.4652 36.7666 88.8141 35.8354 87.8707 35.1529C85.7466 33.6157 83.0177 33.2602 80.57 34.2022C78.9635 34.8207 78.0712 36.4988 78.4485 38.1924C78.5885 38.8208 78.7027 39.4538 78.795 40.0897L77.3217 39.9142V33.1963C77.3217 32.6422 76.8725 32.193 76.3184 32.193H75.6096V22.2279C75.6252 22.2273 75.6411 22.2265 75.6567 22.2259C79.5967 22.051 83.4062 21.1711 86.9511 19.639C87.2299 21.7815 88.0944 25.7305 90.7559 28.1071C92.0256 29.241 93.5401 29.8805 95.2724 30.0183C94.3507 32.0757 93.1066 33.9892 91.5817 35.6605ZM105.47 21.9215C104.912 22.3858 104.157 22.5691 103.449 22.4118L97.5688 21.0575C96.3141 20.7062 95.4379 19.551 95.4379 18.2482C95.4379 17.6941 94.9887 17.2449 94.4345 17.2449C93.8803 17.2449 93.4311 17.6941 93.4311 18.2482C93.4311 20.4472 94.9099 22.3968 97.0276 22.9898L97.0734 23.0026L97.0407 23.3465C96.8883 24.9453 96.5503 26.5211 96.0432 28.0396C94.4785 28.0509 93.1829 27.582 92.097 26.6142C89.6385 24.4233 89.0211 20.3064 88.8718 18.7326C90.7278 17.7787 92.4995 16.6377 94.1656 15.3175C94.3389 15.1802 94.4621 14.9892 94.5158 14.7745L96.0507 8.63496C96.7233 9.43945 97.1409 10.4464 97.2168 11.5098L97.2997 12.6699C97.3238 13.0078 97.5169 13.3108 97.8133 13.4755L100.532 14.986C101.118 15.3114 101.552 15.8695 101.722 16.5172C102.027 17.6739 102.763 18.6428 103.796 19.2452L106.67 20.9212L105.47 21.9215Z" fill="white"/>
<path d="M100.459 15.804C100.195 15.804 99.9359 15.9106 99.7491 16.0973C99.5638 16.2841 99.4558 16.5419 99.4558 16.8073C99.4558 17.0713 99.5638 17.3291 99.7491 17.5158C99.9359 17.7026 100.195 17.8106 100.459 17.8106C100.723 17.8106 100.982 17.7026 101.169 17.5158C101.356 17.3291 101.463 17.0713 101.463 16.8073C101.463 16.5434 101.356 16.2841 101.169 16.0973C100.982 15.9106 100.723 15.804 100.459 15.804Z" fill="white"/>
</svg>
