<?xml version="1.0" encoding="iso-8859-1"?>
<!-- Generator: Adobe Illustrator 18.0.0, SVG Export Plug-In . SVG Version: 6.00 Build 0)  -->
<!DOCTYPE svg PUBLIC "-//W3C//DTD SVG 1.1//EN" "http://www.w3.org/Graphics/SVG/1.1/DTD/svg11.dtd">
<svg version="1.1" id="Capa_1" xmlns="http://www.w3.org/2000/svg" xmlns:xlink="http://www.w3.org/1999/xlink" x="0px" y="0px"
	 viewBox="0 0 60 60" style="enable-background:new 0 0 60 60;" xml:space="preserve">
<g>
	<path style="fill:#0066ff;" d="M46,0h-3v12h-2V0h-2v12h-2V0h-2v12h-2V0h-2v12h-2V0h-2v12h-2V0h-2v12h-2V0h-2v12h-2V0h-3c-0.553,0-1,0.448-1,1v12
		c0,0.552,0.447,1,1,1v8h6v30h-6v8h32v-8H28V22h18v-8c0.553,0,1-0.448,1-1V1C47,0.448,46.553,0,46,0z"/>
	<polygon style="fill:#0066ff;" points="30,50 46,50 46,46 34,46 34,44 46,44 46,42 34,42 34,40 46,40 46,38 34,38 34,36 46,36 46,34 34,34 34,32 46,32 
		46,30 34,30 34,28 46,28 46,24 30,24 	"/>
	<rect style="fill:#0066ff;" x="14" y="24" width="4" height="26"/>
</g>
<g>
</g>
<g>
</g>
<g>
</g>
<g>
</g>
<g>
</g>
<g>
</g>
<g>
</g>
<g>
</g>
<g>
</g>
<g>
</g>
<g>
</g>
<g>
</g>
<g>
</g>
<g>
</g>
<g>
</g>
</svg>
