<?xml version="1.0" encoding="iso-8859-1"?>
<!-- Generator: Adobe Illustrator 19.0.0, SVG Export Plug-In . SVG Version: 6.00 Build 0)  -->
<svg version="1.1" id="Layer_1" xmlns="http://www.w3.org/2000/svg" xmlns:xlink="http://www.w3.org/1999/xlink" x="0px" y="0px"
	 viewBox="0 0 503.607 503.607" style="enable-background:new 0 0 503.607 503.607;" xml:space="preserve">
<g>
	<g>
		<g>
			<path style="fill:#0066ff;" d="M444.852,176.262v-58.754c0-4.642-3.752-8.393-8.393-8.393V75.541c0-13.883-11.298-25.18-25.18-25.18h-16.787V40.347
				c0-12.993-10.567-23.56-23.56-23.56h-3.24c-12.993,0-23.56,10.567-23.56,23.56v10.013h-16.787c-3.315,0-6.463,0.68-9.367,1.847
				c-2.896-10.702-12.599-18.633-24.207-18.633h-16.787V23.56c0-12.993-10.567-23.56-23.56-23.56h-3.24
				c-12.993,0-23.56,10.567-23.56,23.56v10.013h-16.787c-11.608,0-21.303,7.932-24.207,18.633c-2.904-1.167-6.052-1.847-9.367-1.847
				h-16.787V40.347c0-12.993-10.567-23.56-23.56-23.56h-3.24c-12.993,0-23.56,10.567-23.56,23.56v10.013H92.328
				c-13.883,0-25.18,11.298-25.18,25.18v33.574c-4.642,0-8.393,3.752-8.393,8.393v58.754c0,4.642,3.752,8.393,8.393,8.393v167.869
				c-4.642,0-8.393,3.752-8.393,8.393v58.754c0,4.642,3.752,8.393,8.393,8.393v50.361c0,13.883,11.298,25.18,25.18,25.18h83.934
				c6.471,0,12.322-2.526,16.787-6.547c4.465,4.02,10.315,6.547,16.787,6.547h83.934c6.471,0,12.322-2.526,16.787-6.547
				c4.465,4.02,10.316,6.547,16.787,6.547h83.934c13.883,0,25.18-11.298,25.18-25.18v-50.361c4.642,0,8.393-3.752,8.393-8.393
				v-58.754c0-4.642-3.752-8.393-8.393-8.393V184.656C441.101,184.656,444.852,180.904,444.852,176.262z M360.918,40.347
				c0-3.735,3.038-6.774,6.773-6.774h3.24c3.735,0,6.773,3.038,6.773,6.774v10.013h-16.787V40.347z M243.41,23.56
				c0-3.735,3.038-6.773,6.773-6.773h3.24c3.735,0,6.774,3.038,6.774,6.773v10.013H243.41V23.56z M201.443,75.541V58.754
				c0-4.633,3.76-8.393,8.393-8.393h25.18h33.574h25.18c4.633,0,8.393,3.76,8.393,8.393v16.787v33.574H201.443V75.541z
				 M125.902,40.347c0-3.735,3.038-6.774,6.773-6.774h3.24c3.735,0,6.773,3.038,6.773,6.774v10.013h-16.787V40.347z
				 M302.164,478.426c0,4.633-3.76,8.393-8.393,8.393h-83.934c-4.633,0-8.393-3.76-8.393-8.393v-50.361h100.721V478.426z
				 M428.066,411.279H310.557H193.049H75.541v-41.967h87.636c0.26,0.227,0.546,0.42,0.814,0.646
				c2.266,1.972,4.625,3.836,7.025,5.657c0.948,0.713,1.88,1.435,2.845,2.124c2.308,1.654,4.675,3.215,7.084,4.717
				c1.167,0.73,2.333,1.452,3.517,2.14c2.3,1.343,4.633,2.61,7.017,3.811c1.402,0.713,2.812,1.385,4.239,2.048
				c2.275,1.049,4.558,2.048,6.899,2.971c1.637,0.655,3.299,1.242,4.969,1.821c2.207,0.781,4.423,1.536,6.681,2.199
				c1.939,0.562,3.903,1.032,5.867,1.511c2.073,0.504,4.13,1.032,6.236,1.444c2.443,0.47,4.919,0.789,7.395,1.125
				c1.712,0.235,3.391,0.537,5.12,0.705c4.281,0.411,8.587,0.655,12.918,0.655c4.331,0,8.637-0.243,12.917-0.655
				c1.729-0.168,3.408-0.47,5.12-0.705c2.476-0.336,4.952-0.655,7.395-1.125c2.107-0.411,4.163-0.94,6.236-1.444
				c1.964-0.478,3.928-0.948,5.867-1.511c2.258-0.663,4.474-1.418,6.681-2.199c1.67-0.579,3.332-1.167,4.969-1.821
				c2.342-0.923,4.633-1.922,6.899-2.971c1.427-0.663,2.837-1.335,4.23-2.048c2.392-1.2,4.726-2.468,7.025-3.811
				c1.183-0.688,2.35-1.41,3.517-2.14c2.409-1.502,4.776-3.064,7.084-4.717c0.965-0.688,1.897-1.41,2.845-2.124
				c2.401-1.821,4.759-3.685,7.025-5.657c0.269-0.227,0.554-0.42,0.814-0.646h87.636V411.279z M118.138,281.054
				c0.176,1.872,0.47,3.693,0.722,5.54c0.294,2.115,0.579,4.23,0.965,6.329c0.445,2.375,0.974,4.717,1.536,7.05
				c0.344,1.419,0.705,2.829,1.091,4.23c0.739,2.677,1.544,5.313,2.434,7.915c0.311,0.898,0.655,1.779,0.982,2.669
				c1.083,2.946,2.224,5.859,3.5,8.704c0.092,0.185,0.185,0.378,0.277,0.571c4.667,10.232,10.525,19.792,17.492,28.462H83.934
				V184.656h63.203c-6.967,8.67-12.834,18.239-17.5,28.471c-0.084,0.193-0.185,0.378-0.269,0.562
				c-1.276,2.845-2.417,5.758-3.5,8.704c-0.327,0.89-0.671,1.771-0.974,2.669c-0.898,2.602-1.704,5.237-2.442,7.915
				c-0.386,1.402-0.747,2.812-1.091,4.23c-0.562,2.333-1.091,4.675-1.536,7.051c-0.386,2.098-0.671,4.214-0.965,6.329
				c-0.252,1.847-0.546,3.668-0.722,5.54c-0.386,4.13-0.63,8.284-0.63,12.464S117.752,276.925,118.138,281.054z M151.082,268.59
				c0-55.539,45.182-100.721,100.721-100.721s100.721,45.182,100.721,100.721c0,55.539-45.182,100.721-100.721,100.721
				S151.082,324.13,151.082,268.59z M385.469,256.126c-0.176-1.872-0.47-3.693-0.722-5.54c-0.294-2.115-0.579-4.23-0.965-6.329
				c-0.445-2.375-0.974-4.717-1.536-7.051c-0.344-1.418-0.705-2.829-1.091-4.23c-0.739-2.677-1.544-5.313-2.443-7.915
				c-0.302-0.898-0.646-1.771-0.974-2.661c-1.083-2.946-2.224-5.867-3.508-8.721c-0.076-0.176-0.176-0.353-0.252-0.529
				c-4.667-10.248-10.534-19.817-17.509-28.496h63.203v167.869h-63.203c6.967-8.67,12.834-18.247,17.5-28.487
				c0.084-0.185,0.185-0.361,0.269-0.546c1.276-2.845,2.417-5.758,3.5-8.712c0.327-0.881,0.672-1.763,0.974-2.661
				c0.898-2.602,1.704-5.238,2.443-7.915c0.386-1.402,0.747-2.812,1.091-4.23c0.562-2.333,1.091-4.675,1.536-7.05
				c0.386-2.098,0.672-4.214,0.965-6.329c0.252-1.847,0.546-3.668,0.722-5.54c0.386-4.13,0.63-8.284,0.63-12.464
				S385.855,260.255,385.469,256.126z M428.066,167.869H340.43c-0.26-0.227-0.546-0.42-0.814-0.646
				c-2.258-1.964-4.608-3.819-6.992-5.632c-0.965-0.73-1.922-1.469-2.896-2.165c-2.291-1.637-4.633-3.181-7.017-4.675
				c-1.192-0.747-2.392-1.486-3.609-2.191c-2.266-1.318-4.583-2.577-6.933-3.769c-1.427-0.722-2.871-1.41-4.323-2.082
				c-2.241-1.041-4.507-2.031-6.824-2.946c-1.662-0.663-3.357-1.259-5.044-1.847c-2.191-0.764-4.373-1.519-6.614-2.174
				c-1.964-0.571-3.953-1.049-5.943-1.528c-2.048-0.504-4.088-1.024-6.178-1.427c-2.459-0.478-4.944-0.806-7.437-1.141
				c-1.695-0.227-3.366-0.529-5.086-0.697c-4.272-0.411-8.578-0.655-12.917-0.655c-4.339,0-8.645,0.243-12.918,0.655
				c-1.721,0.168-3.391,0.47-5.086,0.697c-2.493,0.336-4.977,0.663-7.437,1.141c-2.09,0.403-4.13,0.923-6.178,1.427
				c-1.989,0.478-3.979,0.957-5.943,1.528c-2.241,0.655-4.423,1.402-6.614,2.174c-1.687,0.588-3.383,1.183-5.053,1.847
				c-2.308,0.915-4.566,1.905-6.815,2.946c-1.452,0.671-2.896,1.36-4.323,2.082c-2.359,1.192-4.667,2.451-6.933,3.769
				c-1.217,0.705-2.417,1.444-3.609,2.191c-2.384,1.494-4.725,3.038-7.017,4.675c-0.974,0.697-1.93,1.435-2.896,2.165
				c-2.384,1.813-4.734,3.668-6.992,5.632c-0.269,0.227-0.554,0.42-0.814,0.646H75.541v-41.967h117.508h117.508h117.508V167.869z"/>
			<path style="fill:#0066ff;" d="M251.805,352.526c46.273,0,83.934-37.661,83.934-83.934c0-46.281-37.661-83.934-83.934-83.934
				c-46.281,0-83.934,37.653-83.934,83.934C167.871,314.865,205.523,352.526,251.805,352.526z M243.411,209.838
				c0-4.642,3.752-8.393,8.393-8.393c4.642,0,8.393,3.752,8.393,8.393v39.777l19.884-19.892c3.282-3.282,8.586-3.282,11.868,0
				c3.282,3.282,3.282,8.586,0,11.868l-34.212,34.22c-1.637,1.637-3.785,2.459-5.934,2.459c-2.149,0-4.297-0.823-5.934-2.459
				c-1.813-1.805-2.518-4.222-2.333-6.589c-0.017-0.218-0.126-0.403-0.126-0.63V209.838z"/>
		</g>
	</g>
</g>
<g>
</g>
<g>
</g>
<g>
</g>
<g>
</g>
<g>
</g>
<g>
</g>
<g>
</g>
<g>
</g>
<g>
</g>
<g>
</g>
<g>
</g>
<g>
</g>
<g>
</g>
<g>
</g>
<g>
</g>
</svg>
