<svg width="67" height="67" viewBox="0 0 67 67" fill="none" xmlns="http://www.w3.org/2000/svg">
<g clip-path="url(#clip0_43_465)">
<path d="M53.3877 8.35234C52.8053 8.92263 51.4317 9.5921 50.7736 9.88523C50.8387 9.71773 50.8793 9.54892 50.8839 9.38456C51.0305 8.57886 50.0203 5.74537 49.2161 4.80357C49.1205 4.66342 48.9296 4.7337 48.9456 4.9025C49.1724 6.14553 48.6944 8.42942 48.6155 9.26351C48.6134 9.54382 48.7278 9.93783 48.8694 10.3222C47.9984 9.36009 46.7447 8.77934 45.4017 8.77934C45.1096 8.77934 44.8132 8.80682 44.5157 8.86387C43.3548 9.08633 42.378 9.72074 41.7051 10.5857C41.7051 10.5857 50.22 11.6809 50.5349 11.6809C50.8464 11.681 51.159 11.6327 51.3871 11.4876C51.9579 11.2363 53.3145 9.39005 53.5655 8.48085C53.6135 8.35954 53.4859 8.27134 53.3877 8.35234Z" fill="#0066FF"/>
<path d="M40.7663 12.7818C40.6925 13.2864 40.6991 13.8115 40.8005 14.3409C41.23 16.5819 43.1911 18.1407 45.3913 18.1407C47.8243 18.1407 49.791 16.3031 50.0488 13.9772L40.7663 12.7818Z" fill="#0066FF"/>
<path d="M66.5361 14.155C66.0305 13.5227 65.2362 13.2581 64.4921 13.3972L64.396 9.34663L65.5023 9.07117C65.7118 9.01909 65.8572 8.82842 65.852 8.61277L65.813 6.96407C65.8079 6.75195 65.6588 6.57058 65.4517 6.52478L64.3234 6.27484L64.2965 5.1399C64.2903 4.88525 64.0791 4.68359 63.8244 4.68974L62.1095 4.73044C61.8549 4.73659 61.6532 4.94793 61.6594 5.20258L61.6709 5.68741L59.8098 5.27508C58.1119 6.74737 58.1669 9.06829 59.9326 10.4587L61.773 10.0004L61.8952 15.157L56.7709 19.255L52.4729 19.4852C51.8128 19.0576 50.9934 18.8733 50.16 19.0332C49.284 19.201 45.2252 19.9788 44.6232 20.0943C42.9084 20.4228 41.7849 22.0793 42.1133 23.794L42.5963 26.3147L46.3862 21.9391L42.8161 29.1697L35.5419 30.1051C34.3804 30.2544 33.5601 31.317 33.7094 32.4785C33.8395 33.4897 34.7008 34.4173 36.0828 34.3109L44.4845 33.2304C45.17 33.1426 45.8017 32.7005 46.1151 32.0661V32.066L50.0573 24.0818L48.0978 32.5262C47.8914 33.4155 46.7427 34.9923 44.7437 35.2491L44.3187 35.3037L44.969 38.6969L41.6555 46.0291C41.5855 46.1844 41.5309 46.3465 41.4932 46.5127L38.6081 59.202C38.2966 60.5722 39.1547 61.9356 40.525 62.2469C41.8923 62.5584 43.258 61.7023 43.5699 60.3301L46.3982 47.8907L50.556 38.6902L51.8546 38.4415L50.3551 47.9925C50.2868 48.4274 50.3327 48.8729 50.4879 49.2851L54.7799 60.6641C55.2766 61.9808 56.7456 62.6418 58.0584 62.1467C59.373 61.6509 60.037 60.183 59.541 58.8682L55.4864 48.118L56.8714 39.3832C56.9907 38.6307 56.9785 37.8633 56.8357 37.1149L54.2589 23.6282L57.675 23.4453C58.116 23.4217 58.5387 23.2605 58.8836 22.9848L66.2044 17.1303C67.118 16.3998 67.2663 15.0678 66.5361 14.155Z" fill="#0066FF"/>
<path d="M35.551 57.2133L26.4541 53.5557L29.1465 56.329C30.3428 57.5611 30.7427 59.2712 30.3575 60.8236L33.5787 62.1188C34.9339 62.664 36.4735 62.006 37.0177 60.6522C37.5622 59.2978 36.9056 57.7581 35.551 57.2133Z" fill="#0066FF"/>
<path d="M27.6057 57.8246L19.8824 49.869C18.9051 48.8624 17.3119 48.7945 16.2526 49.714L9.71086 55.392L14.8454 48.0926C15.7844 46.7575 17.4242 46.209 18.9165 46.5933L19.2655 43.9626C19.4741 42.3905 18.3688 40.9469 16.7966 40.7383L11.584 40.0464C10.0118 39.8378 8.5682 40.9432 8.35961 42.5153L8.21723 43.5875L9.64098 43.0841L3.83568 47.19C3.41287 47.489 3.10875 47.9274 2.97698 48.4282L0.073213 59.4535C-0.236792 60.6307 0.466183 61.8362 1.64326 62.1462C2.82008 62.456 4.02594 61.7533 4.33595 60.576L7.03531 50.3261L12.1862 46.6828L9.05368 50.5604C9.02803 50.6575 6.43519 60.5035 6.41229 60.5904C6.89909 61.8296 8.27167 62.5372 9.59256 62.1641C9.73781 62.1229 18.7328 59.5728 18.8961 59.5266L16.9093 57.48L13.176 59.3852L17.8299 55.3459L23.8116 61.5077C24.8294 62.556 26.503 62.5794 27.5501 61.5631C28.5978 60.5462 28.6226 58.8723 27.6057 57.8246Z" fill="#0066FF"/>
<path d="M23.0338 31.9563C22.7864 31.1525 21.9339 30.7018 21.1311 30.9488C20.7953 31.0521 20.4573 31.1421 20.1182 31.2251L19.1635 27.6592C19.0839 27.3621 18.7832 27.1815 18.4838 27.2509L16.7096 27.6613C16.2143 27.7759 15.6992 27.7759 15.2039 27.6613L13.4297 27.2509C13.1302 27.1815 12.8296 27.3623 12.7501 27.6592L11.7953 31.2251C11.4561 31.1424 11.1181 31.0522 10.7825 30.9488C9.9799 30.7017 9.12709 31.1525 8.87977 31.9563C8.63245 32.7601 9.08339 33.6118 9.88712 33.859C10.4747 34.0399 11.0677 34.1905 11.6637 34.3178C11.5229 36.5543 13.1356 38.5498 15.3908 38.8491C17.7464 39.1617 19.9092 37.5055 20.2219 35.1499C20.2591 34.8686 20.2677 34.5904 20.251 34.3175C20.8467 34.1902 21.4394 34.0396 22.0265 33.8591C22.8299 33.6118 23.2809 32.7601 23.0338 31.9563Z" fill="#0066FF"/>
</g>
<defs>
<clipPath id="clip0_43_465">
<rect width="67" height="67" fill="white"/>
</clipPath>
</defs>
</svg>
