<svg width="142" height="69" viewBox="0 0 142 69" fill="none" xmlns="http://www.w3.org/2000/svg">
<rect x="0.228943" y="0.956299" width="141.325" height="67.5835" fill="var(--color-3)"/>
<path d="M8.83136 43.463L8.87593 42.2308H9.18796L8.96508 33.0775L8.87593 32.9895L8.96508 31.7573L9.18796 31.5813C9.2771 28.1782 9.36625 26.4619 9.4554 26.4326L9.85657 26.0805C9.97544 25.9632 10.8372 25.8898 12.4419 25.8605L12.4865 25.5525H13.7791V25.9485H14.3586L14.6706 26.3006H15.3838L15.8295 25.7725L18.2811 25.6405V25.0244H31.2523V25.7725L32.01 26.3006L34.5953 26.3886L33.7039 27.7968H34.3279L35.7097 25.6405H37.1361L37.8047 24.6723H38.9191V24.5403H38.5625V24.0122H38.9191L39.0082 23.7042H39.3202V23.4402H39.454L39.5431 23.4842H40.4792L40.5683 23.4402H40.7466V24.2323H41.3261L55.1887 21.1078H56.9271L57.3729 20.9758H57.9523L58.5318 20.4477H61.4291L61.6074 20.2717L61.8749 20.1397V20.0077H59.6907V18.8635L60.9834 18.1594H65.3517L65.7083 18.3354V19.8316H65.0842V20.3597L65.5745 20.5797H66.1986L66.6889 20.7998H67.0901L67.1792 21.1078H79.8383L100.877 25.7725L104.8 26.6966H107.786L107.92 26.4766V26.3006H109.659L116.568 26.1685V24.1443L117.637 23.0881V20.4477L117.905 20.2717H119.108V26.1685H125.839L126.062 26.4766H130.341L130.564 27.0047H131.678C131.708 27.034 131.723 27.0927 131.723 27.1807V29.205C131.723 29.2637 131.708 29.3223 131.678 29.381C131.619 29.469 130.252 29.513 127.577 29.513L127.043 30.7452L126.998 31.3613L127.043 31.4053H127.8L128.023 31.9774L128.246 31.8894H129.227V34.3097L129.138 34.3977H128.246L128.112 34.3097L128.023 34.3977L127.8 34.7058H127.043L126.998 34.3977H126.686L126.463 34.4857H123.655V34.6618H124.502L125.304 35.5419V36.246H123.655L123.566 36.422H122.229L116.657 34.7058H104.087L103.552 34.1777H101.011L100.744 34.0897H91.5168L91.294 34.3977H80.2395L81.0864 36.246H82.914L83.4489 36.9501C83.4489 37.0381 84.0283 37.0821 85.1873 37.0821H86.9702L87.8172 37.4782L87.8617 38.3583L91.294 38.2703V38.0502H92.2746V42.935H91.294V42.7149L88.4858 42.8909V42.6709H88.1737V42.8909H87.8172V43.199L86.9702 43.551H83.7609L83.3597 43.287H73.8654L73.4642 43.551H72.5281L71.9487 43.199V42.8909H71.9041L71.7258 42.4069L71.5921 38.7984L71.7704 38.3583H72.127V37.4782L72.5281 37.0821L73.1522 36.9501V36.246L73.3305 36.114H75.2918V36.026C75.2918 35.9379 75.262 35.8646 75.2026 35.8059C75.1135 35.8059 75.0689 35.7913 75.0689 35.7619H73.1522L72.8402 35.3219L72.751 34.7058H72.5727L72.5281 35.8939H64.7722V36.9501H66.0203V37.4782H66.5552V48.9638L66.4214 49.0518H66.0203V49.3599H64.9059V48.6998H56.0356L55.9465 48.8318V49.3599H54.8321V49.0518H54.2527V37.4782H54.8321V36.8621H55.9465V35.8939H55.1887L53.7623 35.6739L51.8011 35.5419L51.8902 39.9865C51.7713 40.4559 51.593 40.8667 51.3553 41.2187C51.2364 41.3947 50.9839 41.6734 50.5976 42.0548C50.2707 42.3775 49.1712 42.4656 47.299 42.3189C47.0613 42.3189 46.8236 42.2895 46.5859 42.2308L45.6052 41.8348L45.2486 41.7468H44.268L40.5683 47.8637V47.9077C40.5683 47.9663 40.598 48.025 40.6575 48.0837L41.6381 49.3599V50.108H35.6206L35.3977 49.932H33.8822L27.82 47.5556V47.2476L25.8142 46.3674H14.5369L14.4477 46.6315L12.2636 46.7635L12.0407 46.6315V46.3674L11.4167 46.7635C10.1983 46.6755 9.55941 46.6168 9.49998 46.5875C9.38111 46.5581 9.32168 46.4701 9.32168 46.3234C9.32168 46.2354 9.2771 45.3846 9.18796 43.7711L9.05423 43.551L8.83136 43.463ZM91.7397 27.0047L95.4839 26.8726L95.7514 26.7846L91.7397 25.9485V27.0047V27.0047ZM84.4741 38.5783V42.3629C84.4741 42.7149 84.6524 42.8909 85.009 42.8909C85.2467 42.8909 85.3804 42.8323 85.4101 42.7149C85.4399 42.6856 85.4547 42.6416 85.4547 42.5829V38.5783C85.4547 38.3143 85.3061 38.1823 85.009 38.1823C84.6524 38.1823 84.4741 38.3143 84.4741 38.5783V38.5783ZM72.439 23.6602V24.5403H76.7181V25.0244H79.3926V26.1685H80.2395V26.3006L80.507 26.3886V26.5206H84.4741V26.8726H90.4916V26.1685C90.4916 25.9632 90.4173 25.8312 90.2687 25.7725L90.0459 25.6405L79.4372 23.4842L72.439 23.6602ZM57.6849 26.5206V27.1807H59.1113V27.4887H62.6326L62.8109 27.5767H63.5687V26.4766L63.4795 26.3006H60.0473V26.5206H57.6849ZM46.8533 41.9228H49.9289C50.3152 41.9228 50.657 41.6001 50.9541 40.9547C51.3999 39.7812 51.3107 38.813 50.6867 38.0502C50.4787 37.8449 50.2261 37.6835 49.9289 37.5662C49.6318 37.4488 49.4015 37.3828 49.238 37.3682C49.0746 37.3535 48.7923 37.3535 48.3911 37.3682C47.99 37.3828 47.7745 37.3902 47.7448 37.3902C47.5665 37.4782 47.4328 37.5662 47.3436 37.6542C47.0167 37.8889 46.8236 38.2996 46.7642 38.8864C46.7047 39.2971 46.7047 39.6345 46.7642 39.8985C46.7939 40.1626 46.8979 40.4413 47.0762 40.7346L47.2099 41.2187L47.3436 41.3507C47.3733 41.4681 47.3139 41.5561 47.1653 41.6148L46.8979 41.7468C46.8682 41.7761 46.8533 41.7761 46.8533 41.7468L46.2293 41.3947L45.7389 41.2187L46.2293 41.7468L46.8533 41.9228ZM29.0236 37.6982L28.3995 38.2703L28.4441 41.1307C28.4441 41.5121 28.6224 41.8348 28.979 42.0988C29.1573 42.2455 30.1528 42.7002 31.9655 43.463L35.0411 44.7392L35.4868 44.8712C35.6354 44.9299 35.7543 44.9299 35.8434 44.8712L36.9578 43.9911C37.3441 43.287 37.7453 42.5609 38.1613 41.8128C38.5773 41.0647 38.8671 40.5439 39.0305 40.2506C39.1939 39.9572 39.2757 39.7958 39.2757 39.7665C39.3054 39.6491 39.3648 39.5465 39.454 39.4585C39.3351 38.549 39.2459 38.0502 39.1865 37.9622L38.9191 37.6982L37.1361 37.5222L34.9965 36.554V35.6739L31.2523 35.2338L29.9596 35.8939L29.0236 36.026V37.6982V37.6982ZM23.0506 40.1185V41.0427H24.8781V40.2066L23.0506 40.1185ZM18.2811 40.3826L18.0583 40.9547C18.1177 41.0133 19.5738 41.0427 22.4265 41.0427V40.1185H18.3703L18.2811 40.3826Z" fill="white"/>
</svg>
