<svg width="142" height="69" viewBox="0 0 142 69" fill="none" xmlns="http://www.w3.org/2000/svg">
<rect x="0.457825" y="0.722351" width="141.325" height="67.5835" fill="var(--color-3)"/>
<path d="M76.6333 52.1492H62.4922L66.009 48.4215C67.4664 48.5377 71.0994 48.2948 72.6624 47.9463L76.6333 52.1492V52.1492ZM101.916 29.6987C101.05 28.8751 99.6774 28.9173 98.8537 29.7832L95.5164 33.3208H84.6808C83.4452 27.798 77.5944 23.4473 70.2334 22.6447V18.5686H83.0755C84.2689 18.5686 85.2405 17.5971 85.2405 16.4038C85.2405 15.2105 84.2689 14.239 83.0755 14.239H53.0612C51.8678 14.239 50.8962 15.2105 50.8962 16.4038C50.8856 17.5971 51.8572 18.5686 53.0612 18.5686H65.9034V35.4961C65.9034 36.6894 64.9318 37.6609 63.7384 37.6609H50.8434C51.8256 42.0644 55.7331 45.7076 60.9925 47.4183L56.5358 52.1492H53.9166C52.7232 52.1492 51.7516 53.1207 51.7516 54.3139C51.7516 55.5072 52.7232 56.4787 53.9166 56.4787H85.2089C86.4022 56.4787 87.3739 55.5072 87.3739 54.3139C87.3739 53.1207 86.4022 52.1492 85.2089 52.1492H82.5897L77.1403 46.3729C81.0689 44.4298 83.8676 41.3041 84.6808 37.6609H96.4458C97.0477 37.6609 97.6075 37.4181 98.0193 36.9851L102.001 32.7611C102.825 31.8952 102.782 30.5224 101.916 29.6987V29.6987Z" fill="white"/>
<path d="M50.8434 33.3314H61.5734V23.3945C56.0183 25.0207 51.8572 28.7695 50.8434 33.3314Z" fill="white"/>
</svg>
