<svg width="13" height="13" viewBox="0 0 13 13" fill="none" xmlns="http://www.w3.org/2000/svg">
<path d="M6.50016 9.20831L7.04183 8.12498V5.33973C7.97404 5.0976 8.66683 4.2564 8.66683 3.24998C8.66683 2.05506 7.69508 1.08331 6.50016 1.08331C5.30525 1.08331 4.3335 2.05506 4.3335 3.24998C4.3335 4.2564 5.02629 5.0976 5.9585 5.33973V8.12498L6.50016 9.20831Z" fill="#0066FF"/>
<path d="M8.81145 5.72161L8.52275 6.76594C9.9262 7.15378 10.8335 7.89965 10.8335 8.66665C10.8335 9.69149 9.05412 10.8333 6.50016 10.8333C3.9462 10.8333 2.16683 9.69149 2.16683 8.66665C2.16683 7.89965 3.07412 7.15378 4.47812 6.7654L4.18941 5.72107C2.27354 6.25082 1.0835 7.37911 1.0835 8.66665C1.0835 10.4888 3.46304 11.9167 6.50016 11.9167C9.53729 11.9167 11.9168 10.4888 11.9168 8.66665C11.9168 7.37911 10.7268 6.25082 8.81145 5.72161Z" fill="#0066FF"/>
</svg>
