<?xml version='1.0' encoding='iso-8859-1'?>
<!DOCTYPE svg PUBLIC '-//W3C//DTD SVG 1.1//EN' 'http://www.w3.org/Graphics/SVG/1.1/DTD/svg11.dtd'>
<svg version="1.1" xmlns="http://www.w3.org/2000/svg" viewBox="0 0 512 512" xmlns:xlink="http://www.w3.org/1999/xlink" enable-background="new 0 0 512 512">
  <g>
    <path style="fill:#0066ff;" d="m480,0h-448c-8.836,0-16,7.164-16,16v480c0,8.836 7.164,16 16,16h448c8.836,0 16-7.164 16-16v-480c0-8.836-7.164-16-16-16zm-208,32h80v64h-80v-64zm-112,0h80v64h-80v-64zm-32,64c-8.836,0-16,7.164-16,16v288c0,8.836 7.164,16 16,16v64h-80v-448h80v64zm112,384h-80v-64h80v64zm112,0h-80v-64h80v64zm16-96h-224v-256h224v256zm96,96h-80v-64c8.836,0 16-7.164 16-16v-288c0-8.836-7.164-16-16-16v-64h80v448z"/>
    <path style="fill:#0066ff;" d="m192,352.002h128c8.837,0 16-7.164 16-16v-64c0-8.837-7.163-16-16-16h-0.004l.004-.002v-32c0-35.289-28.711-64-64-64s-64,28.711-64,64v32l.004,.002h-0.004c-8.837,0-16,7.163-16,16v64c0,8.836 7.163,16 16,16zm64-32.002c-8.837,0-16-7.164-16-16 0-8.837 7.163-16 16-16 8.837,0 16,7.163 16,16 0,8.836-7.163,16-16,16zm-32-96c0-17.648 14.352-32 32-32s32,14.352 32,32v32.002h-64v-32.002z"/>
  </g>
</svg>
