<svg width="79" height="79" viewBox="0 0 79 79" fill="none" xmlns="http://www.w3.org/2000/svg">
<path d="M59.7762 37.324C60.1389 37.324 60.4535 37.4573 60.7202 37.724C60.9869 37.9907 61.1202 38.316 61.1202 38.7C61.1202 39.0627 60.9869 39.3773 60.7202 39.644C60.4535 39.9107 60.1389 40.044 59.7762 40.044H4.09619V37.324H59.7762ZM67.7442 38.732L73.9842 43.18L66.3362 43.116L68.7362 50.38L62.5922 45.836L60.2882 53.132L57.9842 45.836L51.8082 50.38L54.2402 43.116L54.4962 42.348H59.8722C60.8749 42.348 61.7335 41.9907 62.4482 41.276C63.1629 40.5613 63.5202 39.7027 63.5202 38.7C63.5202 37.6973 63.1629 36.8387 62.4482 36.124C61.7335 35.4093 60.8749 35.052 59.8722 35.052H54.4962L54.2402 34.348L51.8082 27.052L57.9842 31.628L60.2882 24.3L62.5922 31.628L68.7362 27.052L66.3362 34.348L73.9842 34.284L67.7442 38.732ZM40.7682 43.116V42.348H54.4962V43.116H40.7682ZM48.9602 35.052V34.284H54.4962V35.052H48.9602ZM34.3042 35.052V34.284H44.5122V35.052H34.3042ZM26.8482 35.052V34.284H29.4082V35.052H26.8482ZM19.5202 35.052V34.284H20.5762V35.052H19.5202ZM13.6002 35.052V34.284H14.6562V35.052H13.6002ZM31.3602 43.116V42.348H35.4562V43.116H31.3602ZM22.7522 43.116V42.348H23.6802V43.116H22.7522Z" fill="#0066FF"/>
</svg>
