<?xml version="1.0" encoding="iso-8859-1"?>
<!-- Generator: Adobe Illustrator 18.0.0, SVG Export Plug-In . SVG Version: 6.00 Build 0)  -->
<!DOCTYPE svg PUBLIC "-//W3C//DTD SVG 1.1//EN" "http://www.w3.org/Graphics/SVG/1.1/DTD/svg11.dtd">
<svg version="1.1" id="Capa_1" xmlns="http://www.w3.org/2000/svg" xmlns:xlink="http://www.w3.org/1999/xlink" x="0px" y="0px"
	 viewBox="0 0 495.575 495.575" style="enable-background:new 0 0 495.575 495.575;" xml:space="preserve">
<g>
	<path style="fill:#0066ff;" d="M247.779,0C111.152,0,0.01,111.161,0.01,247.796c0,136.626,111.142,247.779,247.77,247.779
		c136.622,0,247.786-111.153,247.786-247.779C495.565,111.161,384.401,0,247.779,0z M247.779,461.831
		c-118.015,0-214.03-96.015-214.03-214.035c0-118.029,96.016-214.051,214.03-214.051c118.025,0,214.042,96.021,214.042,214.051
		C461.821,365.816,365.805,461.831,247.779,461.831z"/>
	<path style="fill:#0066ff;" d="M247.779,70.388c-97.811,0-177.385,79.587-177.385,177.408c0,97.813,79.574,177.393,177.385,177.393
		c16.314,0,29.515-13.228,29.515-29.523c0-16.306-13.2-29.525-29.515-29.525c-65.254,0-118.338-53.094-118.338-118.345
		c0-65.268,53.084-118.361,118.338-118.361c65.251,0,118.352,53.094,118.352,118.361c0,16.305,13.223,29.523,29.529,29.523
		c16.314,0,29.52-13.219,29.52-29.523C425.18,149.975,345.609,70.388,247.779,70.388z"/>
	<path style="fill:#0066ff;" d="M282.252,249.278c0.016-0.51,0.145-0.981,0.145-1.49c0-19.107-15.487-34.619-34.618-34.619
		c-19.119,0-34.601,15.512-34.601,34.619c0,19.123,15.482,34.618,34.601,34.618c0.631,0,1.198-0.154,1.829-0.187l99.495,83.362
		c4.586,3.863,11.453,3.961,16.152-0.081c5.248-4.487,5.863-12.377,1.376-17.625L282.252,249.278z"/>
</g>
<g>
</g>
<g>
</g>
<g>
</g>
<g>
</g>
<g>
</g>
<g>
</g>
<g>
</g>
<g>
</g>
<g>
</g>
<g>
</g>
<g>
</g>
<g>
</g>
<g>
</g>
<g>
</g>
<g>
</g>
</svg>
