<?xml version="1.0"?>
<svg width="32px" height="32px" viewBox="0 0 32 32" style="enable-background:new 0 0 32 32;" version="1.1" xml:space="preserve" xmlns="http://www.w3.org/2000/svg" xmlns:xlink="http://www.w3.org/1999/xlink">
	<style type="text/css">
	.st0{display:none;}
</style>
	<g class="st0" id="etc" />
	<g id="knife" />
	<g id="emergency_meeting" />
	<g id="Suspicious">
		<path  style="fill:#0066ff;" d="M19.1816,3h-6.3633C7.4043,3,3,7.4048,3,12.8188V29c0,0.5522,0.4473,1,1,1h24c0.5527,0,1-0.4478,1-1V12.8188   C29,7.4048,24.5957,3,19.1816,3z M11,13c0,1.7647-0.0772,3.7081-0.2063,5.2794C9.6475,17.5629,9,16.401,9,15v-1   c0-2.3179,1.8574-4,4.416-4h5.168C21.1426,10,23,11.6821,23,14v1c0,1.5422-0.7878,2.7912-2.1594,3.478   c-0.0403-0.0649-0.0793-0.1311-0.1335-0.185c-1.0127-1.0117-1.916-1.0615-2.5049-0.9238c-0.6229,0.147-1.0863,0.5569-1.4271,0.9919   L16.707,18.293c-0.1984-0.199-0.4643-0.2861-0.7308-0.2798c-0.0869-1.9072-0.4799-5.2098-2.1354-6.0957   c-0.418-0.2231-1.2832-0.4902-2.3955,0.2505C11.167,12.3535,11,12.6655,11,13z M14.006,19.0302l-1.3705,0.8223   c0.2548-1.7595,0.3451-4.0248,0.3616-6.106c0.4756,0.4438,1.001,2.7109,1.0029,5.2539C14,19.011,14.0057,19.0198,14.006,19.0302z    M15,22c-0.3691,0-0.708,0.2031-0.8818,0.5283s-0.1543,0.7197,0.0498,1.0264c0.0156,0.0229,1.4208,2.1814,0.2612,4.4453h-1.5616   l-0.7836-5.4839l3.7607-2.2568L17,21.4141V23c0-0.5522-0.4473-1-1-1H15z M16.5958,27.9902   c0.2999-0.9173,0.3459-1.7955,0.2607-2.5712c0.5957-0.0742,1.1924-0.3252,1.5908-0.5244C18.7861,24.7251,19,24.3789,19,24v-3   c0-0.2651-0.1055-0.5195-0.293-0.707l-0.4999-0.4999c0.1506-0.2438,0.3221-0.4468,0.4559-0.4777   c0.0547-0.0181,0.2363,0.0317,0.5205,0.2876l0.7686,1.5371l-0.873,4.3667L16.5958,27.9902z M27,28h-7.5859l1.293-1.293   c0.1396-0.1396,0.2344-0.3174,0.2734-0.5107l1-5c0.0439-0.2183,0.0137-0.4448-0.0859-0.6436l-0.1487-0.2974   C23.7846,19.2287,25,17.2985,25,15v-1c0-3.4204-2.7578-6-6.416-6h-5.168C9.7578,8,7,10.5796,7,14v1   c0,2.4078,1.325,4.4208,3.5428,5.4038c-0.0768,0.4338-0.1605,0.7501-0.2498,0.8892c-0.0051,0.0051-0.0066,0.0122-0.0116,0.0175   c-0.0826,0.0861-0.1475,0.1847-0.1945,0.2928c-0.012,0.0276-0.0166,0.0559-0.026,0.0843   c-0.0276,0.0827-0.0446,0.1671-0.0497,0.2556c-0.0021,0.0374-0.0027,0.0726-0.0007,0.11c0.0015,0.0297-0.0049,0.0586-0.0006,0.0884   L10.8467,28H5V12.8188C5,8.5073,8.5068,5,12.8184,5h6.3633C23.4932,5,27,8.5073,27,12.8188V28z" />
	</g>
	<g id="report" />
	<g id="killed" />
	<g id="Die_1_" />
	<g id="Pets" />
	<g id="Vent" />
	<g id="Die_2" />
	<g id="ghost" />
	<g id="Hats" />
	<g id="Crewmates" />
	<g id="ejection" />
	<g id="sabotage" />
	<g id="Die" />
	<g id="impostor" />
	<g id="pets" />
	<g id="crewmates" />
	<g id="Guides" />
</svg>