<svg width="10" height="10" viewBox="0 0 10 10" fill="none" xmlns="http://www.w3.org/2000/svg">
<path d="M5 0.0101624C2.243 0.0101624 0 2.25316 0 5.01016C0 7.76716 2.243 9.99 5 9.99C7.757 9.99 10 7.76716 10 5.01016C10 2.25316 7.757 0.0101624 5 0.0101624ZM5.33333 5.1565C5.33333 5.3405 5.184 5.48983 5 5.48983H2.33333C2.14933 5.48983 2 5.3405 2 5.1565C2 4.9725 2.14933 4.82316 2.33333 4.82316H4.66667V1.1565C4.66667 0.972496 4.816 0.823162 5 0.823162C5.184 0.823162 5.33333 0.972496 5.33333 1.1565V5.1565Z" fill="#0066FF"/>
</svg>
