<svg width="142" height="69" viewBox="0 0 142 69" fill="none" xmlns="http://www.w3.org/2000/svg">
<rect y="0.876587" width="141.325" height="67.5835" fill="var(--color-3)"/>
<path d="M86.0241 19.5705C86.0241 11.2627 79.4406 4.56296 71.2771 4.56296C63.1136 4.56296 56.5301 11.2627 56.5301 19.5705C56.5301 25.0197 59.3391 29.7542 63.5525 32.4341L59.3391 59.8586H83.2151L79.0017 32.4341C83.2151 29.7542 86.0241 25.0197 86.0241 19.5705Z" fill="#DBDBDB"/>
<path d="M83.2151 59.8586L79.0017 32.3897C83.2151 29.7055 86.0241 24.9633 86.0241 19.5948C86.0241 11.2736 79.4406 4.56296 71.2771 4.56296C63.1136 4.56296 56.5301 11.2736 56.5301 19.5948" fill="white"/>
<path d="M71.8916 27.91C78.3879 27.91 83.7273 24.461 84.7952 19.9229C83.7273 15.3847 78.3879 11.9357 71.8916 11.9357C65.3953 11.9357 60.0558 15.3847 58.9879 19.9229C60.0558 24.461 65.3953 27.91 71.8916 27.91Z" fill="#F7F6ED"/>
<path d="M59.4329 19.3085H58.9879C60.0558 24.1957 65.3953 27.91 71.8916 27.91C78.3879 27.91 83.7273 24.1957 84.7952 19.3085H84.3502" fill="#C9C6B1"/>
<path d="M71.2771 26.6812C74.6707 26.6812 77.4217 23.6554 77.4217 19.9229C77.4217 16.1903 74.6707 13.1645 71.2771 13.1645C67.8836 13.1645 65.1325 16.1903 65.1325 19.9229C65.1325 23.6554 67.8836 26.6812 71.2771 26.6812Z" fill="#C2C2C2"/>
<path d="M72.506 13.1645C75.2132 13.1645 77.4217 16.2009 77.4217 19.9229C77.4217 23.6449 75.2132 26.6812 72.506 26.6812" fill="#CFCFCF"/>
<path d="M71.8916 22.9948C73.5883 22.9948 74.9639 21.6195 74.9639 19.9229C74.9639 18.2262 73.5883 16.8509 71.8916 16.8509C70.1948 16.8509 68.8193 18.2262 68.8193 19.9229C68.8193 21.6195 70.1948 22.9948 71.8916 22.9948Z" fill="#979797"/>
<path d="M74.1131 18.0797C75.2474 19.2139 75.2474 21.0099 74.1131 22.1441C72.9787 23.2784 71.1826 23.2784 70.0482 22.1441" fill="#F2F2F2"/>
<path d="M69.9595 18.9743C70.6732 18.9743 71.2518 18.382 71.2518 17.6513C71.2518 16.9207 70.6732 16.3284 69.9595 16.3284C69.2458 16.3284 68.6672 16.9207 68.6672 17.6513C68.6672 18.382 69.2458 18.9743 69.9595 18.9743Z" fill="white"/>
<path d="M73.4918 21.973C73.8249 21.973 74.0949 21.6966 74.0949 21.3556C74.0949 21.0146 73.8249 20.7382 73.4918 20.7382C73.1587 20.7382 72.8887 21.0146 72.8887 21.3556C72.8887 21.6966 73.1587 21.973 73.4918 21.973Z" fill="white"/>
</svg>
