<?xml version="1.0" encoding="iso-8859-1"?>
<!-- Generator: Adobe Illustrator 19.0.0, SVG Export Plug-In . SVG Version: 6.00 Build 0)  -->
<svg version="1.1" id="Layer_1" xmlns="http://www.w3.org/2000/svg" xmlns:xlink="http://www.w3.org/1999/xlink" x="0px" y="0px"
	 viewBox="0 0 512 512" style="enable-background:new 0 0 512 512;" xml:space="preserve">
<g>
	<g>
		<path d="M191.385,380.408h-19.262v-14.745c-2.788,0.192-5.594,0.295-8.416,0.295h-14.868v14.45H63.751v-14.451H40.467v14.451
			H16.439c-6.43,0-11.642,5.212-11.642,11.642s5.212,11.642,11.642,11.642h174.947c6.43,0,11.642-5.212,11.642-11.642
			S197.815,380.408,191.385,380.408z"/>
	</g>
</g>
<g>
	<g>
		<path d="M440.814,118.527H250.538c-2.755-6.025-8.819-10.219-15.876-10.219s-13.122,4.195-15.876,10.219H28.51
			c-6.43,0-11.642,5.212-11.642,11.642c0,6.43,5.212,11.642,11.642,11.642H217.2v3.53c0,2.397,0.484,4.68,1.359,6.759h32.209
			c0.873-2.079,1.359-4.362,1.359-6.759v-3.53h188.688c6.43,0,11.642-5.212,11.642-11.642
			C452.456,123.739,447.244,118.527,440.814,118.527z"/>
	</g>
</g>
<g>
	<g>
		<polygon points="274.927,169.564 194.397,169.564 184.158,195.272 285.167,195.272 		"/>
	</g>
</g>
<g>
	<g>
		<path d="M511.841,204.803c0.498-1.519-0.283-2.517-0.793-2.976c-0.509-0.459-1.582-1.132-3.041-0.477l-32.799,14.72
			c-1.125,0.505-2.342,0.766-3.575,0.766H303.297v31.227h166.748c1.44,0,2.857,0.356,4.126,1.036l33.449,17.935
			c1.376,0.737,2.46,0.239,3.126-0.31c0.666-0.548,1.362-1.516,0.901-3.008l-0.799-2.585c-5.547-17.967-5.381-36.909,0.483-54.778
			L511.841,204.803z"/>
	</g>
</g>
<g>
	<g>
		<path d="M143.485,216.836c-37.967,0-73.872,14.486-101.227,38.927h44.052c6.43,0,11.642,5.212,11.642,11.642
			c0,6.43-5.212,11.642-11.642,11.642H21.035c-7.932,10.772-14.501,22.682-19.393,35.518C0.552,317.422,0,320.42,0,323.476
			c0,13.795,11.223,25.018,25.017,25.018h138.69c27.293,0,52.957-10.598,72.294-29.846l49.833-55.73v-46.082H143.485z"/>
	</g>
</g>
<g>
</g>
<g>
</g>
<g>
</g>
<g>
</g>
<g>
</g>
<g>
</g>
<g>
</g>
<g>
</g>
<g>
</g>
<g>
</g>
<g>
</g>
<g>
</g>
<g>
</g>
<g>
</g>
<g>
</g>
</svg>
