<?xml version="1.0" encoding="iso-8859-1"?>
<!-- Generator: Adobe Illustrator 16.0.0, SVG Export Plug-In . SVG Version: 6.00 Build 0)  -->
<!DOCTYPE svg PUBLIC "-//W3C//DTD SVG 1.1//EN" "http://www.w3.org/Graphics/SVG/1.1/DTD/svg11.dtd">
<svg version="1.1" id="Capa_1" xmlns="http://www.w3.org/2000/svg" xmlns:xlink="http://www.w3.org/1999/xlink" x="0px" y="0px"
	  viewBox="0 0 419.768 419.768" style="enable-background:new 0 0 419.768 419.768;"
	 xml:space="preserve">
<g>
	<g>
		<path d="M209.885,176.559c-18.378,0-33.324,14.945-33.324,33.324c0,18.371,14.946,33.322,33.324,33.322
			c18.371,0,33.324-14.951,33.324-33.322C243.209,191.504,228.256,176.559,209.885,176.559z M209.885,226.546
			c-9.193,0-16.664-7.478-16.664-16.663c0-9.193,7.471-16.66,16.664-16.66c9.187,0,16.66,7.467,16.66,16.66
			C226.545,219.068,219.071,226.546,209.885,226.546z"/>
		<path d="M411.438,201.551h-99.996c-4.034-49.562-43.663-89.189-93.225-93.225V8.329c0-4.597-3.736-8.329-8.332-8.329
			c-4.605,0-8.332,3.732-8.332,8.329v99.997c-49.568,4.035-89.189,43.663-93.227,93.225H8.332c-4.598,0-8.332,3.735-8.332,8.332
			c0,4.605,3.734,8.332,8.332,8.332h99.994c4.037,49.568,43.665,89.188,93.227,93.225v99.996c0,4.599,3.736,8.332,8.332,8.332
			c4.604,0,8.332-3.733,8.332-8.332V311.432c49.562-4.026,89.189-43.654,93.225-93.217h99.996c4.599,0,8.33-3.736,8.33-8.332
			C419.768,205.28,416.035,201.551,411.438,201.551z M209.885,295.146c-47.018,0-85.264-38.257-85.264-85.264
			c0-47.017,38.246-85.261,85.264-85.261c47.008,0,85.261,38.244,85.261,85.261C295.146,256.89,256.893,295.146,209.885,295.146z"/>
	</g>
</g>
<g>
</g>
<g>
</g>
<g>
</g>
<g>
</g>
<g>
</g>
<g>
</g>
<g>
</g>
<g>
</g>
<g>
</g>
<g>
</g>
<g>
</g>
<g>
</g>
<g>
</g>
<g>
</g>
<g>
</g>
</svg>
