<?xml version="1.0" encoding="iso-8859-1"?>
<!-- Generator: Adobe Illustrator 19.0.0, SVG Export Plug-In . SVG Version: 6.00 Build 0)  -->
<svg version="1.1" id="Layer_1" xmlns="http://www.w3.org/2000/svg" xmlns:xlink="http://www.w3.org/1999/xlink" x="0px" y="0px"
	 viewBox="0 0 512.288 512.288" style="enable-background:new 0 0 512.288 512.288;" xml:space="preserve">
<g transform="translate(0 -1)">
	<g>
		<g>
			<path d="M447.107,157.79c-8.448-40.725,16.064-69.931,17.024-71.04c6.827-7.765,7.125-19.307,0.683-27.413l-40-50.283
				c-4.437-5.568-11.157-8.576-18.475-7.979c-7.104,0.619-13.44,4.715-16.896,10.965c-0.107,0.213-14.507,22.485-61.312,22.485
				c-43.136,0-51.584-18.56-51.648-18.56c-2.667-8.533-10.581-13.973-19.52-14.4c-9.835-0.256-17.387,5.269-20.885,13.547
				c-0.341,0.789-8.725,19.413-51.947,19.413c-46.677,0-60.992-22.016-61.312-22.485c-3.456-6.251-9.792-10.347-16.896-10.965
				c-7.317-0.597-14.037,2.411-18.475,7.979l-40,50.283c-6.379,8-6.059,19.52,0.576,27.285c1.067,1.237,25.579,30.443,17.131,71.189
				c-1.195,5.803-3.243,11.819-6.293,18.432c-5.675,12.459-15.296,42.837-16.021,106.624c-0.085,8,0.661,15.915,2.411,24.469
				c10.859,51.947,43.797,95.744,90.389,120.171l15.872,8.256c40.064,17.685,80.341,44.949,83.285,56.32
				c0.213,11.584,9.664,21.205,21.312,21.205c11.285,0,20.523-8.512,21.248-19.584c0.064-0.555,0.085-1.088,0.107-1.621
				c2.944-11.328,43.243-38.592,84.565-56.939l14.592-7.637c46.592-24.427,79.531-68.224,90.603-121.088
				c1.536-7.637,2.283-15.552,2.197-23.573c-0.725-63.765-10.347-94.144-16.043-106.645
				C450.349,169.629,448.301,163.613,447.107,157.79z M256.131,363.678c-58.816,0-106.667-47.851-106.667-106.667
				s47.851-106.667,106.667-106.667c58.816,0,106.667,47.851,106.667,106.667S314.947,363.678,256.131,363.678z"/>
			<path d="M256.131,193.011c-35.285,0-64,28.715-64,64s28.715,64,64,64s64-28.715,64-64S291.416,193.011,256.131,193.011z"/>
		</g>
	</g>
</g>
</svg>
