<?xml version='1.0' encoding='iso-8859-1'?>
<!DOCTYPE svg PUBLIC '-//W3C//DTD SVG 1.1//EN' 'http://www.w3.org/Graphics/SVG/1.1/DTD/svg11.dtd'>
<svg version="1.1" xmlns="http://www.w3.org/2000/svg" viewBox="0 0 512 512" xmlns:xlink="http://www.w3.org/1999/xlink" enable-background="new 0 0 512 512">
  <path d="m360.25,128c0-17.674-14.203-32-31.875-32s-31.875,14.326-31.875,32h-112.5v-96c0-17.672-14.328-32-32-32s-32,14.328-32,32v128 320c0,17.672 14.828,32 32.5,32h208c17.672,0 31.5-14.328 31.5-32v-320c0-17.674-14.078-32-31.75-32zm-175.75,336c-8.836,0-16-7.168-16-16s7.164-16 16-16 16,7.168 16,16-7.164,16-16,16zm0-48c-8.836,0-16-7.168-16-16s7.164-16 16-16 16,7.168 16,16-7.164,16-16,16zm0-48c-8.836,0-16-7.168-16-16s7.164-16 16-16 16,7.168 16,16-7.164,16-16,16zm48,96c-8.836,0-16-7.168-16-16s7.164-16 16-16 16,7.168 16,16-7.164,16-16,16zm0-48c-8.836,0-16-7.168-16-16s7.164-16 16-16 16,7.168 16,16-7.164,16-16,16zm0-48c-8.836,0-16-7.168-16-16s7.164-16 16-16 16,7.168 16,16-7.164,16-16,16zm48,96c-8.836,0-16-7.168-16-16s7.164-16 16-16 16,7.168 16,16-7.164,16-16,16zm0-48c-8.836,0-16-7.168-16-16s7.164-16 16-16 16,7.168 16,16-7.164,16-16,16zm0-48c-8.836,0-16-7.168-16-16s7.164-16 16-16 16,7.168 16,16-7.164,16-16,16zm48,96c-8.836,0-16-7.168-16-16s7.164-16 16-16 16,7.168 16,16-7.164,16-16,16zm0-48c-8.836,0-16-7.168-16-16s7.164-16 16-16 16,7.168 16,16-7.164,16-16,16zm0-48c-8.836,0-16-7.168-16-16s7.164-16 16-16 16,7.168 16,16-7.164,16-16,16zm15.5-64h-176v-128h176v128z"/>
</svg>
