<svg width="23" height="24" viewBox="0 0 23 24" fill="none" xmlns="http://www.w3.org/2000/svg">
<path d="M22.6963 15.0506L20.9202 13.5505C21.0042 13.0415 21.0476 12.5219 21.0476 12.0022C21.0476 11.4825 21.0042 10.9628 20.9202 10.4539L22.6963 8.95375C22.8303 8.84045 22.9261 8.68956 22.9712 8.52112C23.0162 8.35269 23.0083 8.1747 22.9485 8.01082L22.9241 7.94118C22.4351 6.59115 21.7029 5.33966 20.7629 4.24717L20.7141 4.19092C20.6001 4.05846 20.4481 3.96324 20.2782 3.91781C20.1083 3.87238 19.9284 3.87888 19.7623 3.93643L17.5578 4.7106C16.7443 4.05162 15.8359 3.53194 14.8543 3.16763L14.4286 0.890687C14.3964 0.719359 14.3123 0.561742 14.1873 0.438775C14.0624 0.315807 13.9025 0.233311 13.729 0.202246L13.6557 0.188852C12.243 -0.0629508 10.757 -0.0629508 9.34426 0.188852L9.27105 0.202246C9.09749 0.233311 8.93762 0.315807 8.81266 0.438775C8.6877 0.561742 8.60357 0.719359 8.57145 0.890687L8.14301 3.17835C7.16924 3.54273 6.26241 4.06214 5.4585 4.71595L3.23768 3.93643C3.07164 3.87842 2.89166 3.87169 2.72165 3.91715C2.55164 3.9626 2.39966 4.05809 2.2859 4.19092L2.2371 4.24717C1.29819 5.34044 0.566127 6.59172 0.075931 7.94118L0.0515263 8.01082C-0.0704968 8.34567 0.0298334 8.7207 0.303707 8.95375L2.10151 10.4699C2.01745 10.9735 1.97678 11.4879 1.97678 11.9995C1.97678 12.5138 2.01745 13.0281 2.10151 13.5291L0.303707 15.0452C0.169741 15.1585 0.0738605 15.3094 0.0288137 15.4779C-0.016233 15.6463 -0.00831113 15.8243 0.0515263 15.9882L0.075931 16.0578C0.566735 17.4079 1.29345 18.6535 2.2371 19.7518L2.2859 19.8081C2.39994 19.9405 2.55193 20.0357 2.72183 20.0812C2.89174 20.1266 3.07159 20.1201 3.23768 20.0626L5.4585 19.283C6.26657 19.9393 7.16954 20.459 8.14301 20.8206L8.57145 23.1083C8.60357 23.2796 8.6877 23.4372 8.81266 23.5602C8.93762 23.6832 9.09749 23.7657 9.27105 23.7967L9.34426 23.8101C10.77 24.0633 12.23 24.0633 13.6557 23.8101L13.729 23.7967C13.9025 23.7657 14.0624 23.6832 14.1873 23.5602C14.3123 23.4372 14.3964 23.2796 14.4286 23.1083L14.8543 20.8314C15.8355 20.468 16.749 19.9466 17.5578 19.2884L19.7623 20.0626C19.9284 20.1206 20.1083 20.1273 20.2784 20.0818C20.4484 20.0364 20.6003 19.9409 20.7141 19.8081L20.7629 19.7518C21.7066 18.6508 22.4333 17.4079 22.9241 16.0578L22.9485 15.9882C23.0705 15.6587 22.9702 15.2837 22.6963 15.0506ZM18.9949 10.7699C19.0627 11.1744 19.098 11.5896 19.098 12.0049C19.098 12.4201 19.0627 12.8353 18.9949 13.2398L18.816 14.3139L20.8415 16.0257C20.5345 16.7245 20.1469 17.3861 19.6864 17.9972L17.17 17.1159L16.3186 17.807C15.6705 18.3321 14.9492 18.7446 14.1682 19.0339L13.1351 19.417L12.6497 22.0154C11.8839 22.1011 11.1107 22.1011 10.3448 22.0154L9.85947 19.4116L8.83447 19.0232C8.06166 18.7339 7.34308 18.3214 6.70043 17.799L5.84898 17.1052L3.31632 17.9946C2.85535 17.3811 2.47029 16.7195 2.16117 16.023L4.20845 14.2952L4.03219 13.2237C3.96711 12.8246 3.93186 12.412 3.93186 12.0049C3.93186 11.595 3.9644 11.1852 4.03219 10.786L4.20845 9.71451L2.16117 7.98672C2.46758 7.28756 2.85535 6.62858 3.31632 6.01515L5.84898 6.9045L6.70043 6.2107C7.34308 5.68834 8.06166 5.27581 8.83447 4.98651L9.86218 4.60345L10.3476 1.99969C11.1095 1.91397 11.8878 1.91397 12.6524 1.99969L13.1378 4.59809L14.171 4.98115C14.9492 5.27046 15.6732 5.68298 16.3213 6.20802L17.1727 6.89914L19.6891 6.01783C20.1501 6.63126 20.5351 7.29292 20.8443 7.98939L18.8187 9.70112L18.9949 10.7699ZM11.5027 7.02236C8.86701 7.02236 6.73026 9.13322 6.73026 11.737C6.73026 14.3407 8.86701 16.4516 11.5027 16.4516C14.1384 16.4516 16.2752 14.3407 16.2752 11.737C16.2752 9.13322 14.1384 7.02236 11.5027 7.02236ZM13.6503 13.8586C13.3686 14.1376 13.0339 14.3589 12.6653 14.5097C12.2968 14.6605 11.9016 14.7378 11.5027 14.7372C10.6919 14.7372 9.92997 14.4238 9.35511 13.8586C9.07262 13.5803 8.84861 13.2496 8.69597 12.8855C8.54333 12.5214 8.46507 12.1311 8.46569 11.737C8.46569 10.936 8.78295 10.1833 9.35511 9.6154C9.92997 9.0475 10.6919 8.73677 11.5027 8.73677C12.3135 8.73677 13.0755 9.0475 13.6503 9.6154C13.9328 9.89366 14.1568 10.2244 14.3095 10.5885C14.4621 10.9526 14.5404 11.3429 14.5397 11.737C14.5397 12.5379 14.2225 13.2907 13.6503 13.8586Z" fill="#0066FF"/>
<path fill-rule="evenodd" clip-rule="evenodd" d="M18.9949 10.7699C19.0627 11.1744 19.098 11.5896 19.098 12.0049C19.098 12.4201 19.0627 12.8353 18.9949 13.2398L18.816 14.3139L20.8415 16.0257C20.5345 16.7245 20.1469 17.3861 19.6864 17.9972L17.17 17.1159L16.3186 17.807C15.6705 18.3321 14.9492 18.7446 14.1682 19.0339L13.1351 19.417L12.6497 22.0154C11.8839 22.1011 11.1107 22.1011 10.3448 22.0154L9.85947 19.4116L8.83447 19.0232C8.06166 18.7339 7.34308 18.3214 6.70043 17.799L5.84898 17.1052L3.31632 17.9946C2.85535 17.3811 2.47029 16.7195 2.16117 16.023L4.20845 14.2952L4.03219 13.2237C3.96711 12.8246 3.93186 12.412 3.93186 12.0049C3.93186 11.595 3.9644 11.1852 4.03219 10.786L4.20845 9.71451L2.16117 7.98672C2.46758 7.28756 2.85535 6.62858 3.31632 6.01515L5.84898 6.9045L6.70043 6.2107C7.34308 5.68834 8.06166 5.27581 8.83447 4.98651L9.86218 4.60345L10.3476 1.99969C11.1095 1.91397 11.8878 1.91397 12.6524 1.99969L13.1378 4.59809L14.171 4.98115C14.9492 5.27046 15.6732 5.68298 16.3213 6.20802L17.1727 6.89914L19.6891 6.01783C20.1501 6.63126 20.5351 7.29292 20.8443 7.98939L18.8187 9.70112L18.9949 10.7699ZM6.73026 11.737C6.73026 9.13322 8.86701 7.02236 11.5027 7.02236C14.1384 7.02236 16.2752 9.13322 16.2752 11.737C16.2752 14.3407 14.1384 16.4516 11.5027 16.4516C8.86701 16.4516 6.73026 14.3407 6.73026 11.737Z" fill="#0066FF"/>
</svg>
